<svg id="Layer_3" enable-background="new 0 0 64 64" height="512" viewBox="0 0 64 64" width="512" xmlns="http://www.w3.org/2000/svg"><g><path d="m55.28 55.578c-1.234-1.097-2.705-1.861-4.28-2.259v-3.319c0-.552-.448-1-1-1h-1v-23c0-1.205-.14-2.392-.388-3.555 1.087.354 2.223.555 3.388.555 6.065 0 11-4.935 11-11s-4.935-11-11-11c-5.933 0-10.771 4.724-10.98 10.607-2.691-1.684-5.825-2.607-9.02-2.607-9.374 0-17 7.626-17 17v23h-1c-.552 0-1 .448-1 1v3.319c-1.575.398-3.046 1.162-4.28 2.259l-6.101 5.422h-1.619v2h62v-2h-1.619zm3.089 5.422h-19.739l4.418-3.927c1.505-1.337 3.44-2.073 5.452-2.073s3.947.736 5.451 2.073zm-22.75 0h-7.239l-3.375-3 1.043-.927c1.505-1.337 3.44-2.073 5.452-2.073s3.947.736 5.451 2.073l1.543 1.372zm16.381-58c4.962 0 9 4.038 9 9s-4.038 9-9 9c-1.857 0-3.645-.567-5.17-1.641-.171-.12-.373-.182-.576-.182-.133 0-.268.027-.394.081l-2.102.9.852-2.271c.113-.301.074-.638-.104-.905-.985-1.481-1.506-3.203-1.506-4.982 0-4.962 4.038-9 9-9zm-35 23c0-8.271 6.729-15 15-15 3.394 0 6.586 1.108 9.245 3.195.247 1.214.675 2.384 1.318 3.455l-1.5 3.999c-.141.375-.044.798.246 1.074.19.181.439.277.691.277.133 0 .267-.026.394-.081l3.757-1.61c.034.021.07.035.104.056.485 1.493.745 3.046.745 4.635v23h-30zm-2 25h34v2.023c-.167-.008-.332-.023-.5-.023-2.502 0-4.91.916-6.78 2.578l-1.72 1.528-1.72-1.529c-1.87-1.661-4.278-2.577-6.78-2.577s-4.91.916-6.78 2.578l-1.22 1.084-1.22-1.084c-1.87-1.662-4.278-2.578-6.78-2.578-.168 0-.333.015-.5.023zm-4.952 6.073c1.505-1.337 3.44-2.073 5.452-2.073s3.947.736 5.451 2.073l4.418 3.927h-19.739z"/><path d="m39 24v-4c0-.552-.448-1-1-1h-3v-3c0-.552-.448-1-1-1h-4c-.552 0-1 .448-1 1v3h-3c-.552 0-1 .448-1 1v4c0 .552.448 1 1 1h3v7c0 .552.448 1 1 1h4c.552 0 1-.448 1-1v-7h3c.552 0 1-.448 1-1zm-2-1h-3c-.552 0-1 .448-1 1v7h-2v-7c0-.552-.448-1-1-1h-3v-2h3c.552 0 1-.448 1-1v-3h2v3c0 .552.448 1 1 1h3z"/><path d="m27 39.5c0-1.93-1.57-3.5-3.5-3.5h-2.5c-.552 0-1 .448-1 1v10h2v-3.858c1.72.447 3 2 3 3.858h2c0-1.735-.744-3.295-1.925-4.392 1.136-.578 1.925-1.747 1.925-3.108zm-5-1.5h1.5c.827 0 1.5.673 1.5 1.5s-.673 1.5-1.5 1.5h-1.5z"/><path d="m40.5 36h-2.5c-.552 0-1 .448-1 1v10h2v-4h1.5c1.93 0 3.5-1.57 3.5-3.5s-1.57-3.5-3.5-3.5zm0 5h-1.5v-3h1.5c.827 0 1.5.673 1.5 1.5s-.673 1.5-1.5 1.5z"/><path d="m29 38h2v7h-2v2h6v-2h-2v-7h2v-2h-6z"/><path d="m47.718 16.625c.556.741 1.368 1.213 2.287 1.33.146.019.292.028.436.028.766 0 1.503-.257 2.111-.744l.142-.113c.763-.61 1.403-1.332 1.915-2.129l2.397-.015-.012-2-1.437.009c.21-.642.343-1.311.401-1.996l2.048-.012-.012-2-2.246.014c-.491-1.172-1.647-1.997-2.994-1.997-1.327 0-2.495.803-2.992 1.999l-2.756-.017-.012 2 2.198.013c-.136.311-.355.578-.641.769-.468.312-.833.744-1.095 1.233l-2.45-.015-.012 2 2.088.013c.072.585.278 1.151.636 1.63zm1.342-2.272c.065-.381.279-.709.601-.924.784-.522 1.342-1.314 1.571-2.229l.314-1.255c.138-.557.635-.945 1.208-.945.687 0 1.246.559 1.246 1.246 0 2.08-.932 4.019-2.555 5.317l-.141.113c-.298.237-.67.339-1.047.294-.377-.048-.711-.242-.939-.546-.232-.309-.324-.69-.258-1.071z"/><path d="m54 16.586h2v2.828h-2z" transform="matrix(.707 -.707 .707 .707 3.381 44.163)"/><path d="m47.586 5h2.828v2h-2.828z" transform="matrix(.707 -.707 .707 .707 10.109 36.406)"/></g></svg>