<svg id="Layer_3" enable-background="new 0 0 64 64" height="512" viewBox="0 0 64 64" width="512" xmlns="http://www.w3.org/2000/svg"><g><path d="m46.213 43.387-8.213-3.08v-2.786c3.588-1.876 6.185-5.377 6.83-9.521h.17c2.206 0 4-1.794 4-4 0-1.404-.731-2.637-1.829-3.351l1.878-5.633c.655-1.965.592-4.107-.178-6.03-.696-1.741-1.905-3.186-3.494-4.18-3.984-2.49-8.573-3.806-13.272-3.806h-.21c-4.699 0-9.288 1.316-13.271 3.806-1.59.994-2.798 2.439-3.495 4.18-.77 1.923-.833 4.065-.178 6.031l1.878 5.633c-1.098.713-1.829 1.946-1.829 3.35 0 2.206 1.794 4 4 4h.17c.644 4.144 3.242 7.645 6.83 9.521v2.786l-8.213 3.08c-4.658 1.747-7.787 6.262-7.787 11.236v7.377c0 .552.448 1 1 1h42c.552 0 1-.448 1-1v-7.377c0-4.974-3.129-9.489-7.787-11.236zm-19.394-1.251 3.684 2.947-2.284 2.284-2.709-4.74zm10.362 0 1.309.491-2.709 4.74-2.284-2.284zm-13.615-17.136-2.566-4.277v-2.309l3.293 3.293c.338.338.867.39 1.262.125l4.445-2.963v2.131c0 .388.225.741.576.906.352.163.767.111 1.064-.138l4.36-3.633v2.865c0 .375.209.718.542.889s.733.142 1.039-.075l5.419-3.871v2.78l-2.566 4.277zm18.434 5.556v-4.279l1-1.667v1.39c0 1.626-.364 3.166-1 4.556zm3-4.556v-4c1.103 0 2 .897 2 2s-.897 2-2 2zm-28.151-11.616c-.506-1.518-.457-3.171.137-4.655.538-1.344 1.471-2.46 2.698-3.227 3.665-2.291 7.888-3.502 12.211-3.502h.21c4.323 0 8.546 1.211 12.212 3.502 1.227.767 2.16 1.882 2.698 3.227.594 1.484.643 3.138.137 4.655l-1.881 5.643c-.092-.006-.179-.027-.271-.027v-4c0-.375-.209-.718-.542-.889s-.734-.142-1.039.075l-5.419 3.871v-3.057c0-.388-.225-.741-.576-.906-.352-.163-.767-.111-1.064.138l-4.36 3.633v-1.865c0-.369-.203-.708-.528-.882-.325-.175-.72-.155-1.026.05l-5.318 3.545-4.42-4.42c-.287-.286-.716-.372-1.09-.217s-.618.52-.618.924v4c-.092 0-.179.021-.27.027zm.151 9.616c0-1.103.897-2 2-2v4c-1.103 0-2-.897-2-2zm4 .61 1 1.667v4.279c-.636-1.39-1-2.93-1-4.556zm3 8.916v-6.526h16v6.526c-2.008 2.133-4.847 3.474-8 3.474s-5.992-1.341-8-3.474zm8 5.474c1.396 0 2.739-.227 4-.636v2.156l-4 3.2-4-3.2v-2.156c1.261.409 2.604.636 4 .636zm20 22h-5v-7h-2v7h-26v-7h-2v7h-5v-6.377c0-4.145 2.608-7.908 6.489-9.363l5.124-1.922 3.519 6.158c.155.271.427.454.735.495.045.006.089.009.133.009.263 0 .519-.104.707-.293l3.293-3.293 3.293 3.293c.188.189.443.293.707.293.044 0 .088-.003.133-.009.309-.042.581-.225.735-.495l3.519-6.158 5.124 1.922c3.881 1.455 6.489 5.218 6.489 9.363z"/><path d="m38 54h5v2h-5z"/><path d="m58.447 30.394c-1.004-.502-1.726-1.417-1.981-2.51l-.492-2.111c-.106-.453-.509-.773-.974-.773s-.868.32-.974.773l-.492 2.111c-.255 1.093-.978 2.008-1.981 2.51-.339.169-.509.538-.509.917s.258.747.597.917c.96.479 1.67 1.349 1.95 2.386l.444 1.647c.117.436.513.739.965.739s.848-.303.965-.74l.444-1.647c.28-1.037.99-1.906 2.038-2.43.339-.169.553-.516.553-.894s-.214-.726-.553-.895zm-3.447 2.409c-.319-.577-.735-1.095-1.229-1.531.502-.461.918-1.008 1.229-1.616.311.608.727 1.155 1.229 1.616-.494.436-.91.954-1.229 1.531z"/><path d="m12.447 41.183c.339-.169.553-.516.553-.894s-.214-.725-.553-.895c-1.004-.502-1.726-1.417-1.981-2.51l-.492-2.111c-.106-.453-.509-.773-.974-.773s-.868.32-.974.773l-.492 2.111c-.255 1.093-.978 2.008-1.981 2.51-.339.169-.509.538-.509.917s.258.747.597.917c.96.479 1.67 1.349 1.95 2.386l.444 1.647c.117.436.513.739.965.739s.848-.303.965-.74l.444-1.647c.28-1.037.99-1.906 2.038-2.43zm-3.447.62c-.319-.577-.735-1.095-1.229-1.531.502-.461.918-1.008 1.229-1.616.311.608.727 1.155 1.229 1.616-.494.436-.91.954-1.229 1.531z"/></g></svg>